<svg width="127" height="68" viewBox="0 0 127 68" fill="none" xmlns="http://www.w3.org/2000/svg">
<path d="M8.4 37.15C9.26667 40.2833 11.6167 41.85 15.45 41.85C17.9167 41.85 19.7833 41.0167 21.05 39.35L26.25 42.35C23.7833 45.9167 20.15 47.7 15.35 47.7C11.2167 47.7 7.9 46.45 5.4 43.95C2.9 41.45 1.65 38.3 1.65 34.5C1.65 30.7333 2.88333 27.6 5.35 25.1C7.81667 22.5667 10.9833 21.3 14.85 21.3C18.5167 21.3 21.5333 22.5667 23.9 25.1C26.3 27.6333 27.5 30.7667 27.5 34.5C27.5 35.3333 27.4167 36.2167 27.25 37.15H8.4ZM8.3 32.15H21.05C20.6833 30.45 19.9167 29.1833 18.75 28.35C17.6167 27.5167 16.3167 27.1 14.85 27.1C13.1167 27.1 11.6833 27.55 10.55 28.45C9.41667 29.3167 8.66667 30.55 8.3 32.15ZM50.8074 22H57.2574V47H50.8074V44.05C48.8741 46.4833 46.1574 47.7 42.6574 47.7C39.3241 47.7 36.4574 46.4333 34.0574 43.9C31.6908 41.3333 30.5074 38.2 30.5074 34.5C30.5074 30.8 31.6908 27.6833 34.0574 25.15C36.4574 22.5833 39.3241 21.3 42.6574 21.3C46.1574 21.3 48.8741 22.5167 50.8074 24.95V22ZM38.9074 39.6C40.2074 40.9 41.8574 41.55 43.8574 41.55C45.8574 41.55 47.5074 40.9 48.8074 39.6C50.1408 38.2667 50.8074 36.5667 50.8074 34.5C50.8074 32.4333 50.1408 30.75 48.8074 29.45C47.5074 28.1167 45.8574 27.45 43.8574 27.45C41.8574 27.45 40.2074 28.1167 38.9074 29.45C37.6074 30.75 36.9574 32.4333 36.9574 34.5C36.9574 36.5667 37.6074 38.2667 38.9074 39.6ZM68.8609 29.1C68.8609 29.7667 69.2943 30.3167 70.1609 30.75C71.0609 31.15 72.1443 31.5167 73.4109 31.85C74.6776 32.15 75.9443 32.55 77.2109 33.05C78.4776 33.5167 79.5443 34.3167 80.4109 35.45C81.3109 36.5833 81.7609 38 81.7609 39.7C81.7609 42.2667 80.7943 44.25 78.8609 45.65C76.9609 47.0167 74.5776 47.7 71.7109 47.7C66.5776 47.7 63.0776 45.7167 61.2109 41.75L66.8109 38.6C67.5443 40.7667 69.1776 41.85 71.7109 41.85C74.0109 41.85 75.1609 41.1333 75.1609 39.7C75.1609 39.0333 74.7109 38.5 73.8109 38.1C72.9443 37.6667 71.8776 37.2833 70.6109 36.95C69.3443 36.6167 68.0776 36.2 66.8109 35.7C65.5443 35.2 64.4609 34.4167 63.5609 33.35C62.6943 32.25 62.2609 30.8833 62.2609 29.25C62.2609 26.7833 63.1609 24.85 64.9609 23.45C66.7943 22.0167 69.0609 21.3 71.7609 21.3C73.7943 21.3 75.6443 21.7667 77.3109 22.7C78.9776 23.6 80.2943 24.9 81.2609 26.6L75.7609 29.6C74.9609 27.9 73.6276 27.05 71.7609 27.05C70.9276 27.05 70.2276 27.2333 69.6609 27.6C69.1276 27.9667 68.8609 28.4667 68.8609 29.1ZM101.184 22H108.084L98.9836 47C97.6836 50.6 95.9503 53.2 93.7836 54.8C91.6503 56.4333 88.9836 57.1667 85.7836 57V51C87.5169 51.0333 88.8836 50.6667 89.8836 49.9C90.9169 49.1333 91.7336 47.9 92.3336 46.2L82.0836 22H89.1336L95.6336 38.8L101.184 22ZM113.362 46.4C112.529 47.2333 111.529 47.65 110.362 47.65C109.195 47.65 108.195 47.2333 107.362 46.4C106.529 45.5667 106.112 44.5667 106.112 43.4C106.112 42.2333 106.529 41.2333 107.362 40.4C108.195 39.5667 109.195 39.15 110.362 39.15C111.529 39.15 112.529 39.5667 113.362 40.4C114.195 41.2333 114.612 42.2333 114.612 43.4C114.612 44.5667 114.195 45.5667 113.362 46.4Z" fill="white"/>
<path d="M119.683 21.345C120.46 20.5677 121.399 20.179 122.499 20.179C123.599 20.179 124.538 20.5677 125.315 21.345C126.092 22.115 126.481 23.05 126.481 24.15C126.481 25.25 126.092 26.1887 125.315 26.966C124.538 27.736 123.599 28.121 122.499 28.121C121.399 28.121 120.46 27.736 119.683 26.966C118.906 26.1887 118.517 25.25 118.517 24.15C118.517 23.05 118.906 22.115 119.683 21.345ZM119.881 26.779C120.607 27.4977 121.48 27.857 122.499 27.857C123.518 27.857 124.387 27.4977 125.106 26.779C125.825 26.053 126.184 25.1767 126.184 24.15C126.184 23.1233 125.825 22.2507 125.106 21.532C124.387 20.806 123.518 20.443 122.499 20.443C121.48 20.443 120.607 20.806 119.881 21.532C119.162 22.2507 118.803 23.1233 118.803 24.15C118.803 25.1767 119.162 26.053 119.881 26.779ZM124.039 23.391C124.039 23.9923 123.764 24.381 123.214 24.557L124.138 26.185H123.555L122.697 24.656H122.543H121.85V26.185H121.322V22.115H122.543C123.027 22.115 123.397 22.2397 123.654 22.489C123.911 22.7383 124.039 23.039 124.039 23.391ZM121.85 24.15H122.565C123.196 24.15 123.511 23.897 123.511 23.391C123.511 23.1563 123.43 22.9693 123.269 22.83C123.108 22.6907 122.873 22.621 122.565 22.621H121.85V24.15Z" fill="white"/>
</svg>
