<svg width="122" height="37" viewBox="0 0 122 37" fill="none" xmlns="http://www.w3.org/2000/svg">
<path d="M7.39999 16.15C8.26666 19.2833 10.6167 20.85 14.45 20.85C16.9167 20.85 18.7833 20.0167 20.05 18.35L25.25 21.35C22.7833 24.9167 19.15 26.7 14.35 26.7C10.2167 26.7 6.89999 25.45 4.39999 22.95C1.89999 20.45 0.649994 17.3 0.649994 13.5C0.649994 9.73334 1.88333 6.6 4.34999 4.1C6.81666 1.56667 9.98333 0.300003 13.85 0.300003C17.5167 0.300003 20.5333 1.56667 22.9 4.1C25.3 6.63334 26.5 9.76667 26.5 13.5C26.5 14.3333 26.4167 15.2167 26.25 16.15H7.39999ZM7.29999 11.15H20.05C19.6833 9.45 18.9167 8.18334 17.75 7.35C16.6167 6.51667 15.3167 6.1 13.85 6.1C12.1167 6.1 10.6833 6.55 9.54999 7.45C8.41666 8.31667 7.66666 9.55 7.29999 11.15Z" fill="white"/>
<path d="M49.8074 1H56.2574V26H49.8074V23.05C47.8741 25.4833 45.1574 26.7 41.6574 26.7C38.3241 26.7 35.4574 25.4333 33.0574 22.9C30.6907 20.3333 29.5074 17.2 29.5074 13.5C29.5074 9.8 30.6907 6.68334 33.0574 4.15C35.4574 1.58334 38.3241 0.300003 41.6574 0.300003C45.1574 0.300003 47.8741 1.51667 49.8074 3.95V1ZM37.9074 18.6C39.2074 19.9 40.8574 20.55 42.8574 20.55C44.8574 20.55 46.5074 19.9 47.8074 18.6C49.1407 17.2667 49.8074 15.5667 49.8074 13.5C49.8074 11.4333 49.1407 9.75 47.8074 8.45C46.5074 7.11667 44.8574 6.45 42.8574 6.45C40.8574 6.45 39.2074 7.11667 37.9074 8.45C36.6074 9.75 35.9574 11.4333 35.9574 13.5C35.9574 15.5667 36.6074 17.2667 37.9074 18.6Z" fill="white"/>
<path d="M67.8609 8.1C67.8609 8.76667 68.2943 9.31667 69.1609 9.75C70.0609 10.15 71.1443 10.5167 72.4109 10.85C73.6776 11.15 74.9443 11.55 76.2109 12.05C77.4776 12.5167 78.5443 13.3167 79.4109 14.45C80.3109 15.5833 80.7609 17 80.7609 18.7C80.7609 21.2667 79.7943 23.25 77.8609 24.65C75.9609 26.0167 73.5776 26.7 70.7109 26.7C65.5776 26.7 62.0776 24.7167 60.2109 20.75L65.8109 17.6C66.5443 19.7667 68.1776 20.85 70.7109 20.85C73.0109 20.85 74.1609 20.1333 74.1609 18.7C74.1609 18.0333 73.7109 17.5 72.8109 17.1C71.9443 16.6667 70.8776 16.2833 69.6109 15.95C68.3443 15.6167 67.0776 15.2 65.8109 14.7C64.5443 14.2 63.4609 13.4167 62.5609 12.35C61.6943 11.25 61.2609 9.88334 61.2609 8.25C61.2609 5.78334 62.1609 3.85 63.9609 2.45C65.7943 1.01667 68.0609 0.300003 70.7609 0.300003C72.7943 0.300003 74.6443 0.766669 76.3109 1.7C77.9776 2.6 79.2943 3.9 80.2609 5.6L74.7609 8.6C73.9609 6.9 72.6276 6.05 70.7609 6.05C69.9276 6.05 69.2276 6.23334 68.6609 6.6C68.1276 6.96667 67.8609 7.46667 67.8609 8.1Z" fill="white"/>
<path d="M100.184 1H107.084L97.9836 26C96.6836 29.6 94.9503 32.2 92.7836 33.8C90.6503 35.4333 87.9836 36.1667 84.7836 36V30C86.5169 30.0333 87.8836 29.6667 88.8836 28.9C89.9169 28.1333 90.7336 26.9 91.3336 25.2L81.0836 1H88.1336L94.6336 17.8L100.184 1Z" fill="white"/>
<path d="M112.362 25.4C111.529 26.2333 110.529 26.65 109.362 26.65C108.195 26.65 107.195 26.2333 106.362 25.4C105.529 24.5667 105.112 23.5667 105.112 22.4C105.112 21.2333 105.529 20.2333 106.362 19.4C107.195 18.5667 108.195 18.15 109.362 18.15C110.529 18.15 111.529 18.5667 112.362 19.4C113.195 20.2333 113.612 21.2333 113.612 22.4C113.612 23.5667 113.195 24.5667 112.362 25.4Z" fill="white"/>
<path d="M115.53 2.95C116.237 2.24334 117.09 1.89 118.09 1.89C119.09 1.89 119.943 2.24334 120.65 2.95C121.357 3.65 121.71 4.5 121.71 5.5C121.71 6.5 121.357 7.35334 120.65 8.06C119.943 8.76 119.09 9.11 118.09 9.11C117.09 9.11 116.237 8.76 115.53 8.06C114.823 7.35334 114.47 6.5 114.47 5.5C114.47 4.5 114.823 3.65 115.53 2.95ZM115.71 7.89C116.37 8.54334 117.163 8.87 118.09 8.87C119.017 8.87 119.807 8.54334 120.46 7.89C121.113 7.23 121.44 6.43334 121.44 5.5C121.44 4.56667 121.113 3.77334 120.46 3.12C119.807 2.46 119.017 2.13 118.09 2.13C117.163 2.13 116.37 2.46 115.71 3.12C115.057 3.77334 114.73 4.56667 114.73 5.5C114.73 6.43334 115.057 7.23 115.71 7.89ZM119.49 4.81C119.49 5.35667 119.24 5.71 118.74 5.87L119.58 7.35H119.05L118.27 5.96H117.5V7.35H117.02V3.65H118.13C118.57 3.65 118.907 3.76334 119.14 3.99C119.373 4.21667 119.49 4.49 119.49 4.81ZM117.5 5.5H118.15C118.723 5.5 119.01 5.27 119.01 4.81C119.01 4.59667 118.937 4.42667 118.79 4.3C118.643 4.17334 118.43 4.11 118.15 4.11H117.5V5.5Z" fill="white"/>
</svg>