<svg width="588" height="187" viewBox="0 0 588 187" fill="none" xmlns="http://www.w3.org/2000/svg">
<path d="M35.68 82.78C40.1867 99.0733 52.4067 107.22 72.34 107.22C85.1667 107.22 94.8733 102.887 101.46 94.22L128.5 109.82C115.673 128.367 96.78 137.64 71.82 137.64C50.3267 137.64 33.08 131.14 20.08 118.14C7.08 105.14 0.58 88.76 0.58 69C0.58 49.4133 6.99333 33.12 19.82 20.12C32.6467 6.94666 49.1133 0.36 69.22 0.36C88.2867 0.36 103.973 6.94666 116.28 20.12C128.76 33.2933 135 49.5867 135 69C135 73.3333 134.567 77.9267 133.7 82.78H35.68ZM35.16 56.78H101.46C99.5533 47.94 95.5667 41.3533 89.5 37.02C83.6067 32.6867 76.8467 30.52 69.22 30.52C60.2067 30.52 52.7533 32.86 46.86 37.54C40.9667 42.0467 37.0667 48.46 35.16 56.78ZM256.199 4H289.739V134H256.199V118.66C246.145 131.313 232.019 137.64 213.819 137.64C196.485 137.64 181.579 131.053 169.099 117.88C156.792 104.533 150.639 88.24 150.639 69C150.639 49.76 156.792 33.5533 169.099 20.38C181.579 7.03333 196.485 0.36 213.819 0.36C232.019 0.36 246.145 6.68667 256.199 19.34V4ZM194.319 95.52C201.079 102.28 209.659 105.66 220.059 105.66C230.459 105.66 239.039 102.28 245.799 95.52C252.732 88.5867 256.199 79.7467 256.199 69C256.199 58.2533 252.732 49.5 245.799 42.74C239.039 35.8067 230.459 32.34 220.059 32.34C209.659 32.34 201.079 35.8067 194.319 42.74C187.559 49.5 184.179 58.2533 184.179 69C184.179 79.7467 187.559 88.5867 194.319 95.52ZM350.077 40.92C350.077 44.3867 352.33 47.2467 356.837 49.5C361.517 51.58 367.15 53.4867 373.737 55.22C380.324 56.78 386.91 58.86 393.497 61.46C400.084 63.8867 405.63 68.0467 410.137 73.94C414.817 79.8333 417.157 87.2 417.157 96.04C417.157 109.387 412.13 119.7 402.077 126.98C392.197 134.087 379.804 137.64 364.897 137.64C338.204 137.64 320.004 127.327 310.297 106.7L339.417 90.32C343.23 101.587 351.724 107.22 364.897 107.22C376.857 107.22 382.837 103.493 382.837 96.04C382.837 92.5733 380.497 89.8 375.817 87.72C371.31 85.4667 365.764 83.4733 359.177 81.74C352.59 80.0067 346.004 77.84 339.417 75.24C332.83 72.64 327.197 68.5667 322.517 63.02C318.01 57.3 315.757 50.1933 315.757 41.7C315.757 28.8733 320.437 18.82 329.797 11.54C339.33 4.08667 351.117 0.36 365.157 0.36C375.73 0.36 385.35 2.78666 394.017 7.63999C402.684 12.32 409.53 19.08 414.557 27.92L385.957 43.52C381.797 34.68 374.864 30.26 365.157 30.26C360.824 30.26 357.184 31.2133 354.237 33.12C351.464 35.0267 350.077 37.6267 350.077 40.92ZM518.155 4H554.035L506.715 134C499.955 152.72 490.941 166.24 479.675 174.56C468.581 183.053 454.715 186.867 438.075 186V154.8C447.088 154.973 454.195 153.067 459.395 149.08C464.768 145.093 469.015 138.68 472.135 129.84L418.835 4H455.495L489.295 91.36L518.155 4ZM581.483 130.88C577.15 135.213 571.95 137.38 565.883 137.38C559.816 137.38 554.616 135.213 550.283 130.88C545.95 126.547 543.783 121.347 543.783 115.28C543.783 109.213 545.95 104.013 550.283 99.68C554.616 95.3467 559.816 93.18 565.883 93.18C571.95 93.18 577.15 95.3467 581.483 99.68C585.816 104.013 587.983 109.213 587.983 115.28C587.983 121.347 585.816 126.547 581.483 130.88Z" fill="url(#paint0_linear)"/>
<defs>
<linearGradient id="paint0_linear" x1="319.5" y1="-112" x2="319.5" y2="195" gradientUnits="userSpaceOnUse">
<stop stop-color="#C400C8"/>
<stop offset="0.9999" stop-color="#57F5FF"/>
<stop offset="1" stop-color="#57F5FF" stop-opacity="0"/>
</linearGradient>
</defs>
</svg>
