<svg width="126" height="68" viewBox="0 0 126 68" fill="none" xmlns="http://www.w3.org/2000/svg">
<g filter="url(#filter0_d)">
<path d="M11.4 37.15C12.2667 40.2833 14.6167 41.85 18.45 41.85C20.9167 41.85 22.7833 41.0167 24.05 39.35L29.25 42.35C26.7833 45.9167 23.15 47.7 18.35 47.7C14.2167 47.7 10.9 46.45 8.4 43.95C5.9 41.45 4.65 38.3 4.65 34.5C4.65 30.7333 5.88333 27.6 8.35 25.1C10.8167 22.5667 13.9833 21.3 17.85 21.3C21.5167 21.3 24.5333 22.5667 26.9 25.1C29.3 27.6333 30.5 30.7667 30.5 34.5C30.5 35.3333 30.4167 36.2167 30.25 37.15H11.4ZM11.3 32.15H24.05C23.6833 30.45 22.9167 29.1833 21.75 28.35C20.6167 27.5167 19.3167 27.1 17.85 27.1C16.1167 27.1 14.6833 27.55 13.55 28.45C12.4167 29.3167 11.6667 30.55 11.3 32.15ZM53.8074 22H60.2574V47H53.8074V44.05C51.8741 46.4833 49.1574 47.7 45.6574 47.7C42.3241 47.7 39.4574 46.4333 37.0574 43.9C34.6908 41.3333 33.5074 38.2 33.5074 34.5C33.5074 30.8 34.6908 27.6833 37.0574 25.15C39.4574 22.5833 42.3241 21.3 45.6574 21.3C49.1574 21.3 51.8741 22.5167 53.8074 24.95V22ZM41.9074 39.6C43.2074 40.9 44.8574 41.55 46.8574 41.55C48.8574 41.55 50.5074 40.9 51.8074 39.6C53.1408 38.2667 53.8074 36.5667 53.8074 34.5C53.8074 32.4333 53.1408 30.75 51.8074 29.45C50.5074 28.1167 48.8574 27.45 46.8574 27.45C44.8574 27.45 43.2074 28.1167 41.9074 29.45C40.6074 30.75 39.9574 32.4333 39.9574 34.5C39.9574 36.5667 40.6074 38.2667 41.9074 39.6ZM71.8609 29.1C71.8609 29.7667 72.2943 30.3167 73.1609 30.75C74.0609 31.15 75.1443 31.5167 76.4109 31.85C77.6776 32.15 78.9443 32.55 80.2109 33.05C81.4776 33.5167 82.5443 34.3167 83.4109 35.45C84.3109 36.5833 84.7609 38 84.7609 39.7C84.7609 42.2667 83.7943 44.25 81.8609 45.65C79.9609 47.0167 77.5776 47.7 74.7109 47.7C69.5776 47.7 66.0776 45.7167 64.2109 41.75L69.8109 38.6C70.5443 40.7667 72.1776 41.85 74.7109 41.85C77.0109 41.85 78.1609 41.1333 78.1609 39.7C78.1609 39.0333 77.7109 38.5 76.8109 38.1C75.9443 37.6667 74.8776 37.2833 73.6109 36.95C72.3443 36.6167 71.0776 36.2 69.8109 35.7C68.5443 35.2 67.4609 34.4167 66.5609 33.35C65.6943 32.25 65.2609 30.8833 65.2609 29.25C65.2609 26.7833 66.1609 24.85 67.9609 23.45C69.7943 22.0167 72.0609 21.3 74.7609 21.3C76.7943 21.3 78.6443 21.7667 80.3109 22.7C81.9776 23.6 83.2943 24.9 84.2609 26.6L78.7609 29.6C77.9609 27.9 76.6276 27.05 74.7609 27.05C73.9276 27.05 73.2276 27.2333 72.6609 27.6C72.1276 27.9667 71.8609 28.4667 71.8609 29.1ZM104.184 22H111.084L101.984 47C100.684 50.6 98.9503 53.2 96.7836 54.8C94.6503 56.4333 91.9836 57.1667 88.7836 57V51C90.5169 51.0333 91.8836 50.6667 92.8836 49.9C93.9169 49.1333 94.7336 47.9 95.3336 46.2L85.0836 22H92.1336L98.6336 38.8L104.184 22ZM116.362 46.4C115.529 47.2333 114.529 47.65 113.362 47.65C112.195 47.65 111.195 47.2333 110.362 46.4C109.529 45.5667 109.112 44.5667 109.112 43.4C109.112 42.2333 109.529 41.2333 110.362 40.4C111.195 39.5667 112.195 39.15 113.362 39.15C114.529 39.15 115.529 39.5667 116.362 40.4C117.195 41.2333 117.612 42.2333 117.612 43.4C117.612 44.5667 117.195 45.5667 116.362 46.4Z" fill="white"/>
</g>
<defs>
<filter id="filter0_d" x="0.650024" y="21.2998" width="120.962" height="43.7231" filterUnits="userSpaceOnUse" color-interpolation-filters="sRGB">
<feFlood flood-opacity="0" result="BackgroundImageFix"/>
<feColorMatrix in="SourceAlpha" type="matrix" values="0 0 0 0 0 0 0 0 0 0 0 0 0 0 0 0 0 0 127 0"/>
<feOffset dy="4"/>
<feGaussianBlur stdDeviation="2"/>
<feColorMatrix type="matrix" values="0 0 0 0 0 0 0 0 0 0 0 0 0 0 0 0 0 0 0.25 0"/>
<feBlend mode="normal" in2="BackgroundImageFix" result="effect1_dropShadow"/>
<feBlend mode="normal" in="SourceGraphic" in2="effect1_dropShadow" result="shape"/>
</filter>
</defs>
</svg>
